<svg width="394" height="387" viewBox="0 0 394 387" fill="none" xmlns="http://www.w3.org/2000/svg">
<path d="M89.75 111.5V382H5.25V111.5H89.75ZM0.25 41.75C0.25 29.75 4.58333 19.9167 13.25 12.25C21.9167 4.58333 33.1667 0.75 47 0.75C60.8333 0.75 72.0833 4.58333 80.75 12.25C89.4167 19.9167 93.75 29.75 93.75 41.75C93.75 53.75 89.4167 63.5833 80.75 71.25C72.0833 78.9167 60.8333 82.75 47 82.75C33.1667 82.75 21.9167 78.9167 13.25 71.25C4.58333 63.5833 0.25 53.75 0.25 41.75ZM393.25 166.75V233.25C393.25 259.417 390.167 282.167 384 301.5C378 320.833 369.333 336.833 358 349.5C346.833 362.167 333.5 371.583 318 377.75C302.5 383.917 285.417 387 266.75 387C251.75 387 237.75 385.083 224.75 381.25C211.75 377.25 200 371.25 189.5 363.25C179.167 355.083 170.25 344.917 162.75 332.75C155.25 320.583 149.5 306.25 145.5 289.75C141.5 273.083 139.5 254.25 139.5 233.25V166.75C139.5 140.417 142.5 117.667 148.5 98.5C154.667 79.1667 163.417 63.1667 174.75 50.5C186.083 37.8333 199.5 28.4167 215 22.25C230.5 16.0833 247.583 13 266.25 13C281.25 13 295.167 15 308 19C321 22.8333 332.75 28.8333 343.25 37C353.75 45 362.667 55.0833 370 67.25C377.5 79.4167 383.25 93.8333 387.25 110.5C391.25 127 393.25 145.75 393.25 166.75ZM309 243.5V156C309 144.333 308.333 134.167 307 125.5C305.833 116.833 304 109.5 301.5 103.5C299.167 97.5 296.25 92.6667 292.75 89C289.25 85.1667 285.25 82.4167 280.75 80.75C276.417 78.9167 271.583 78 266.25 78C259.583 78 253.583 79.4167 248.25 82.25C243.083 84.9167 238.667 89.25 235 95.25C231.333 101.25 228.5 109.25 226.5 119.25C224.667 129.25 223.75 141.5 223.75 156V243.5C223.75 255.333 224.333 265.667 225.5 274.5C226.833 283.167 228.667 290.583 231 296.75C233.5 302.75 236.5 307.667 240 311.5C243.5 315.167 247.5 317.833 252 319.5C256.5 321.167 261.417 322 266.75 322C273.25 322 279.083 320.667 284.25 318C289.417 315.333 293.833 311 297.5 305C301.333 298.833 304.167 290.75 306 280.75C308 270.583 309 258.167 309 243.5Z" fill="white"/>
</svg>
